<svg width="351.32" height="29.92" viewBox="0 0 351.32 29.92" xmlns="http://www.w3.org/2000/svg"><g id="svgGroup" stroke-linecap="round" fill-rule="evenodd" font-size="9pt" stroke="#000" stroke-width="0.25mm" fill="#000" style="stroke:#000;stroke-width:0.25mm;fill:#000"><path d="M 0.8 29.8 L 0 29.8 L 0 1.8 L 9.48 1.8 A 18.014 18.014 0 0 1 12.208 1.996 Q 13.958 2.264 15.38 2.9 A 9.284 9.284 0 0 1 17.672 4.334 A 7.936 7.936 0 0 1 19.16 6.04 Q 20.48 8.08 20.48 11 Q 20.48 13.88 19.16 15.94 A 8.219 8.219 0 0 1 16.139 18.723 A 10.239 10.239 0 0 1 15.38 19.1 Q 12.92 20.2 9.48 20.2 L 0.44 20.2 L 0.8 19.84 L 0.8 29.8 Z M 0.8 2.24 L 0.8 19.76 L 0.44 19.44 L 9.56 19.44 A 17.49 17.49 0 0 0 12.408 19.223 Q 15.293 18.746 17.08 17.22 A 7.237 7.237 0 0 0 19.537 12.777 A 10.595 10.595 0 0 0 19.68 11 Q 19.68 6.96 17.08 4.76 A 8.427 8.427 0 0 0 14.19 3.199 Q 12.212 2.56 9.56 2.56 L 0.44 2.56 L 0.8 2.24 Z" id="0" vector-effect="non-scaling-stroke"/><path d="M 28.48 29.8 L 27.68 29.8 L 27.68 0.12 L 28.48 0.12 L 28.48 29.8 Z" id="1" vector-effect="non-scaling-stroke"/><path d="M 43.04 18.56 L 51.32 18.56 L 51.32 19.32 L 43 19.32 A 14.634 14.634 0 0 0 41.273 19.415 Q 39.421 19.635 38.347 20.373 A 3.659 3.659 0 0 0 37.98 20.66 Q 36.48 22 36.48 24.08 A 5.039 5.039 0 0 0 36.783 25.863 A 4.429 4.429 0 0 0 38.2 27.78 Q 39.635 28.931 42.016 29.122 A 12.322 12.322 0 0 0 43 29.16 A 10.71 10.71 0 0 0 45.162 28.954 Q 46.55 28.668 47.634 27.985 A 6.548 6.548 0 0 0 47.94 27.78 A 8.033 8.033 0 0 0 50.316 25.077 A 10.335 10.335 0 0 0 50.88 23.88 L 51.28 24.4 Q 50.44 26.88 48.34 28.4 Q 46.294 29.881 43.165 29.919 A 13.628 13.628 0 0 1 43 29.92 A 12.526 12.526 0 0 1 41.227 29.801 Q 40.279 29.665 39.477 29.375 A 7.145 7.145 0 0 1 39.04 29.2 A 6.263 6.263 0 0 1 37.634 28.362 A 5.098 5.098 0 0 1 36.54 27.16 A 5.328 5.328 0 0 1 35.695 24.57 A 6.579 6.579 0 0 1 35.68 24.12 Q 35.68 22.64 36.38 21.38 A 4.443 4.443 0 0 1 37.548 20.038 A 6.335 6.335 0 0 1 38.68 19.34 A 6.634 6.634 0 0 1 40.043 18.865 Q 40.719 18.703 41.522 18.627 A 16.182 16.182 0 0 1 43.04 18.56 Z M 51.68 29.8 L 50.88 29.8 L 50.88 24.88 L 50.88 24.2 L 50.88 16.28 A 9.944 9.944 0 0 0 50.716 14.411 Q 50.514 13.359 50.065 12.543 A 4.864 4.864 0 0 0 49.2 11.4 A 5.386 5.386 0 0 0 46.986 10.12 Q 46.148 9.861 45.137 9.789 A 11.373 11.373 0 0 0 44.32 9.76 A 11.69 11.69 0 0 0 41.641 10.057 A 9.986 9.986 0 0 0 40.08 10.56 A 11.482 11.482 0 0 0 37.899 11.748 A 9.831 9.831 0 0 0 36.8 12.64 L 36.24 12.08 A 10.65 10.65 0 0 1 38.789 10.31 A 12.905 12.905 0 0 1 39.84 9.84 Q 41.96 9 44.28 9 Q 46.867 9 48.576 9.95 A 5.708 5.708 0 0 1 49.78 10.84 A 5.854 5.854 0 0 1 51.29 13.367 Q 51.582 14.309 51.655 15.45 A 12.286 12.286 0 0 1 51.68 16.24 L 51.68 29.8 Z" id="2" vector-effect="non-scaling-stroke"/><path d="M 78.4 17.6 L 78.4 29.8 L 77.6 29.8 L 77.6 17.6 Q 77.6 14.915 76.642 13.13 A 5.994 5.994 0 0 0 75.64 11.76 A 6.424 6.424 0 0 0 72.512 10.024 Q 71.439 9.76 70.16 9.76 A 11.301 11.301 0 0 0 67.925 9.971 A 8.32 8.32 0 0 0 65.48 10.86 Q 63.52 11.96 62.48 13.94 A 8.95 8.95 0 0 0 61.574 16.748 A 11.786 11.786 0 0 0 61.44 18.56 L 61.44 29.8 L 60.64 29.8 L 60.64 9.12 L 61.44 9.12 L 61.44 15 L 61.36 14.88 Q 62.28 12.16 64.52 10.58 A 8.401 8.401 0 0 1 67.666 9.241 A 11.868 11.868 0 0 1 70.12 9 A 11.203 11.203 0 0 1 72.222 9.188 A 8.081 8.081 0 0 1 74.52 9.98 Q 76.36 10.96 77.38 12.88 Q 78.4 14.8 78.4 17.6 Z" id="3" vector-effect="non-scaling-stroke"/><path d="M 104.08 19.44 L 85.36 19.44 L 85.36 18.68 L 103.64 18.68 L 103.32 19.28 A 10.969 10.969 0 0 0 102.953 16.397 A 9.419 9.419 0 0 0 102.16 14.4 Q 101 12.24 99.02 11 Q 97.04 9.76 94.48 9.76 A 8.765 8.765 0 0 0 91.465 10.269 A 8.091 8.091 0 0 0 89.96 11 Q 87.96 12.24 86.82 14.4 A 9.908 9.908 0 0 0 85.735 18.117 A 12.168 12.168 0 0 0 85.68 19.28 L 85.68 19.44 A 11.098 11.098 0 0 0 86.03 22.277 A 9.284 9.284 0 0 0 86.92 24.48 Q 88.16 26.68 90.32 27.92 A 9.389 9.389 0 0 0 94.205 29.115 A 11.574 11.574 0 0 0 95.24 29.16 Q 97.32 29.16 99.18 28.36 Q 101.04 27.56 102.28 25.96 L 102.84 26.52 Q 101.48 28.2 99.48 29.06 Q 97.48 29.92 95.24 29.92 A 11.461 11.461 0 0 1 92.244 29.542 A 9.652 9.652 0 0 1 89.92 28.58 Q 87.6 27.24 86.26 24.86 A 10.447 10.447 0 0 1 84.984 20.738 A 12.888 12.888 0 0 1 84.92 19.44 A 12.973 12.973 0 0 1 85.225 16.566 A 10.252 10.252 0 0 1 86.16 14.02 Q 87.4 11.68 89.58 10.34 A 9.114 9.114 0 0 1 94.226 9.003 A 10.891 10.891 0 0 1 94.48 9 A 9.765 9.765 0 0 1 97.817 9.56 A 9.017 9.017 0 0 1 99.38 10.3 Q 101.56 11.6 102.82 13.92 A 10.368 10.368 0 0 1 103.98 17.606 A 13.045 13.045 0 0 1 104.08 19.24 L 104.08 19.32 L 104.08 19.44 Z" id="4" vector-effect="non-scaling-stroke"/><path d="M 111.16 24.84 L 111.16 4.6 L 111.96 4.6 L 111.96 24.64 A 7.198 7.198 0 0 0 112.065 25.913 Q 112.194 26.628 112.48 27.192 A 3.499 3.499 0 0 0 113.04 28 A 3.453 3.453 0 0 0 114.649 28.961 Q 115.209 29.123 115.883 29.153 A 7.055 7.055 0 0 0 116.2 29.16 A 5.541 5.541 0 0 0 117.875 28.917 A 4.537 4.537 0 0 0 119.64 27.88 L 120.2 28.44 A 4.16 4.16 0 0 1 118.787 29.408 A 5.082 5.082 0 0 1 118.38 29.56 Q 117.28 29.92 116.16 29.92 A 6.782 6.782 0 0 1 114.684 29.769 Q 113.3 29.461 112.44 28.52 A 4.778 4.778 0 0 1 111.285 26.179 A 6.84 6.84 0 0 1 111.16 24.84 Z M 118.96 9.88 L 107.16 9.88 L 107.16 9.12 L 118.96 9.12 L 118.96 9.88 Z" id="5" vector-effect="non-scaling-stroke"/><path d="M 137.88 29.8 L 137.08 29.8 L 137.08 1.8 L 137.88 1.8 L 137.88 29.8 Z" id="7" vector-effect="non-scaling-stroke"/><path d="M 165.56 17.6 L 165.56 29.8 L 164.76 29.8 L 164.76 17.6 Q 164.76 14.915 163.802 13.13 A 5.994 5.994 0 0 0 162.8 11.76 A 6.424 6.424 0 0 0 159.672 10.024 Q 158.599 9.76 157.32 9.76 A 11.301 11.301 0 0 0 155.085 9.971 A 8.32 8.32 0 0 0 152.64 10.86 Q 150.68 11.96 149.64 13.94 A 8.95 8.95 0 0 0 148.734 16.748 A 11.786 11.786 0 0 0 148.6 18.56 L 148.6 29.8 L 147.8 29.8 L 147.8 9.12 L 148.6 9.12 L 148.6 15 L 148.52 14.88 Q 149.44 12.16 151.68 10.58 A 8.401 8.401 0 0 1 154.826 9.241 A 11.868 11.868 0 0 1 157.28 9 A 11.203 11.203 0 0 1 159.382 9.188 A 8.081 8.081 0 0 1 161.68 9.98 Q 163.52 10.96 164.54 12.88 Q 165.56 14.8 165.56 17.6 Z" id="8" vector-effect="non-scaling-stroke"/><path d="M 175.64 29.8 L 174.84 29.8 L 174.84 5.08 A 6.504 6.504 0 0 1 175.031 3.463 A 4.686 4.686 0 0 1 176.14 1.4 Q 177.411 0.031 179.733 0.001 A 8.101 8.101 0 0 1 179.84 0 Q 180.96 0 182.06 0.36 Q 183.16 0.72 183.88 1.48 L 183.32 2.04 A 4.069 4.069 0 0 0 181.808 1.09 A 4.684 4.684 0 0 0 181.78 1.08 Q 180.88 0.76 179.88 0.76 A 5.956 5.956 0 0 0 178.65 0.879 Q 177.454 1.132 176.72 1.92 A 3.731 3.731 0 0 0 175.902 3.366 Q 175.722 3.938 175.666 4.628 A 8.04 8.04 0 0 0 175.64 5.28 L 175.64 9.24 L 175.64 9.68 L 175.64 29.8 Z M 182.64 9.88 L 170.84 9.88 L 170.84 9.12 L 182.64 9.12 L 182.64 9.88 Z" id="9" vector-effect="non-scaling-stroke"/><path d="M 191.037 29.472 A 10.58 10.58 0 0 0 194.16 29.92 A 11.893 11.893 0 0 0 194.914 29.896 A 9.791 9.791 0 0 0 199.32 28.58 Q 201.6 27.24 202.9 24.86 A 10.244 10.244 0 0 0 203.811 22.568 A 12.153 12.153 0 0 0 204.2 19.44 Q 204.2 16.36 202.9 14.02 Q 201.6 11.68 199.32 10.34 Q 197.04 9 194.16 9 A 11.793 11.793 0 0 0 193.275 9.033 A 9.64 9.64 0 0 0 189.02 10.34 Q 186.76 11.68 185.44 14.02 Q 184.12 16.36 184.12 19.44 A 13.081 13.081 0 0 0 184.183 20.738 A 10.561 10.561 0 0 0 185.44 24.86 Q 186.76 27.24 189.02 28.58 A 9.291 9.291 0 0 0 191.037 29.472 Z M 194.16 29.16 A 9.629 9.629 0 0 0 197.231 28.682 A 8.692 8.692 0 0 0 198.9 27.92 Q 201 26.68 202.2 24.48 Q 203.4 22.28 203.4 19.44 Q 203.4 16.56 202.2 14.38 Q 201 12.2 198.9 10.98 A 9.084 9.084 0 0 0 194.832 9.78 A 10.997 10.997 0 0 0 194.16 9.76 A 9.772 9.772 0 0 0 191.259 10.179 A 8.609 8.609 0 0 0 189.44 10.98 Q 187.36 12.2 186.14 14.38 Q 184.92 16.56 184.92 19.44 A 11.27 11.27 0 0 0 185.264 22.277 A 9.372 9.372 0 0 0 186.14 24.48 Q 187.36 26.68 189.44 27.92 A 8.846 8.846 0 0 0 193.429 29.135 A 10.766 10.766 0 0 0 194.16 29.16 Z" id="10" vector-effect="non-scaling-stroke"/><path d="M 211.76 29.8 L 210.96 29.8 L 210.96 9.12 L 211.76 9.12 L 211.76 14.84 L 211.68 14.72 Q 212.52 12 214.62 10.5 A 7.84 7.84 0 0 1 217.616 9.22 A 11.085 11.085 0 0 1 219.88 9 L 219.88 9.8 L 219.78 9.8 L 219.64 9.8 A 9.322 9.322 0 0 0 217.178 10.107 A 6.663 6.663 0 0 0 213.84 12.18 A 8.005 8.005 0 0 0 212.158 15.408 Q 211.835 16.602 211.774 18.016 A 15.499 15.499 0 0 0 211.76 18.68 L 211.76 29.8 Z" id="11" vector-effect="non-scaling-stroke"/><path d="M 259.64 17.6 L 259.64 29.8 L 258.84 29.8 L 258.84 17.6 A 12.427 12.427 0 0 0 258.654 15.38 Q 258.431 14.152 257.939 13.185 A 6.004 6.004 0 0 0 256.94 11.76 A 6.228 6.228 0 0 0 253.715 9.977 A 9.39 9.39 0 0 0 251.64 9.76 A 10.649 10.649 0 0 0 249.472 9.971 A 7.909 7.909 0 0 0 247.1 10.86 Q 245.2 11.96 244.18 13.94 A 9.042 9.042 0 0 0 243.303 16.673 A 11.949 11.949 0 0 0 243.16 18.56 L 243.16 29.8 L 242.36 29.8 L 242.36 17.6 A 12.427 12.427 0 0 0 242.174 15.38 Q 241.951 14.152 241.459 13.185 A 6.004 6.004 0 0 0 240.46 11.76 A 6.228 6.228 0 0 0 237.235 9.977 A 9.39 9.39 0 0 0 235.16 9.76 A 10.649 10.649 0 0 0 232.992 9.971 A 7.909 7.909 0 0 0 230.62 10.86 Q 228.72 11.96 227.7 13.94 A 9.042 9.042 0 0 0 226.823 16.673 A 11.949 11.949 0 0 0 226.68 18.56 L 226.68 29.8 L 225.88 29.8 L 225.88 9.12 L 226.68 9.12 L 226.68 14.96 L 226.6 14.84 Q 227.48 12.16 229.68 10.58 A 8.258 8.258 0 0 1 233.015 9.187 A 11.358 11.358 0 0 1 235.12 9 A 10.382 10.382 0 0 1 237.492 9.257 A 7.422 7.422 0 0 1 240.4 10.62 A 6.524 6.524 0 0 1 242.45 13.406 A 9.593 9.593 0 0 1 243 15.44 L 242.88 15.4 Q 243.64 12.56 245.9 10.78 A 8.144 8.144 0 0 1 249.47 9.192 A 11.329 11.329 0 0 1 251.6 9 A 10.575 10.575 0 0 1 253.64 9.188 A 7.796 7.796 0 0 1 255.88 9.98 A 6.646 6.646 0 0 1 258.652 12.865 A 7.892 7.892 0 0 1 258.66 12.88 Q 259.548 14.62 259.631 17.083 A 15.31 15.31 0 0 1 259.64 17.6 Z" id="12" vector-effect="non-scaling-stroke"/><path d="M 273.96 18.56 L 282.24 18.56 L 282.24 19.32 L 273.92 19.32 A 14.634 14.634 0 0 0 272.193 19.415 Q 270.341 19.635 269.267 20.373 A 3.659 3.659 0 0 0 268.9 20.66 Q 267.4 22 267.4 24.08 A 5.039 5.039 0 0 0 267.703 25.863 A 4.429 4.429 0 0 0 269.12 27.78 Q 270.555 28.931 272.936 29.122 A 12.322 12.322 0 0 0 273.92 29.16 A 10.71 10.71 0 0 0 276.082 28.954 Q 277.47 28.668 278.554 27.985 A 6.548 6.548 0 0 0 278.86 27.78 A 8.033 8.033 0 0 0 281.236 25.077 A 10.335 10.335 0 0 0 281.8 23.88 L 282.2 24.4 Q 281.36 26.88 279.26 28.4 Q 277.214 29.881 274.085 29.919 A 13.628 13.628 0 0 1 273.92 29.92 A 12.526 12.526 0 0 1 272.147 29.801 Q 271.199 29.665 270.397 29.375 A 7.145 7.145 0 0 1 269.96 29.2 A 6.263 6.263 0 0 1 268.554 28.362 A 5.098 5.098 0 0 1 267.46 27.16 A 5.328 5.328 0 0 1 266.615 24.57 A 6.579 6.579 0 0 1 266.6 24.12 Q 266.6 22.64 267.3 21.38 A 4.443 4.443 0 0 1 268.468 20.038 A 6.335 6.335 0 0 1 269.6 19.34 A 6.634 6.634 0 0 1 270.963 18.865 Q 271.639 18.703 272.442 18.627 A 16.182 16.182 0 0 1 273.96 18.56 Z M 282.6 29.8 L 281.8 29.8 L 281.8 24.88 L 281.8 24.2 L 281.8 16.28 A 9.944 9.944 0 0 0 281.636 14.411 Q 281.434 13.359 280.985 12.543 A 4.864 4.864 0 0 0 280.12 11.4 A 5.386 5.386 0 0 0 277.906 10.12 Q 277.068 9.861 276.057 9.789 A 11.373 11.373 0 0 0 275.24 9.76 A 11.69 11.69 0 0 0 272.561 10.057 A 9.986 9.986 0 0 0 271 10.56 A 11.482 11.482 0 0 0 268.819 11.748 A 9.831 9.831 0 0 0 267.72 12.64 L 267.16 12.08 A 10.65 10.65 0 0 1 269.709 10.31 A 12.905 12.905 0 0 1 270.76 9.84 Q 272.88 9 275.2 9 Q 277.787 9 279.496 9.95 A 5.708 5.708 0 0 1 280.7 10.84 A 5.854 5.854 0 0 1 282.21 13.367 Q 282.502 14.309 282.575 15.45 A 12.286 12.286 0 0 1 282.6 16.24 L 282.6 29.8 Z" id="13" vector-effect="non-scaling-stroke"/><path d="M 291.88 24.84 L 291.88 4.6 L 292.68 4.6 L 292.68 24.64 A 7.198 7.198 0 0 0 292.785 25.913 Q 292.914 26.628 293.2 27.192 A 3.499 3.499 0 0 0 293.76 28 A 3.453 3.453 0 0 0 295.369 28.961 Q 295.929 29.123 296.603 29.153 A 7.055 7.055 0 0 0 296.92 29.16 A 5.541 5.541 0 0 0 298.595 28.917 A 4.537 4.537 0 0 0 300.36 27.88 L 300.92 28.44 A 4.16 4.16 0 0 1 299.507 29.408 A 5.082 5.082 0 0 1 299.1 29.56 Q 298 29.92 296.88 29.92 A 6.782 6.782 0 0 1 295.404 29.769 Q 294.02 29.461 293.16 28.52 A 4.778 4.778 0 0 1 292.005 26.179 A 6.84 6.84 0 0 1 291.88 24.84 Z M 299.68 9.88 L 287.88 9.88 L 287.88 9.12 L 299.68 9.12 L 299.68 9.88 Z" id="14" vector-effect="non-scaling-stroke"/><path d="M 307.88 29.8 L 307.08 29.8 L 307.08 9.12 L 307.88 9.12 L 307.88 29.8 Z M 307.48 3.4 Q 307.08 3.4 306.76 3.08 A 1.179 1.179 0 0 1 306.553 2.807 A 0.928 0.928 0 0 1 306.44 2.36 A 0.971 0.971 0 0 1 306.731 1.648 A 1.173 1.173 0 0 1 306.76 1.62 A 1.156 1.156 0 0 1 307.066 1.41 A 0.977 0.977 0 0 1 307.48 1.32 A 1.064 1.064 0 0 1 307.897 1.4 A 1.008 1.008 0 0 1 308.22 1.62 A 1.003 1.003 0 0 1 308.52 2.346 A 1.282 1.282 0 0 1 308.52 2.36 Q 308.52 2.76 308.22 3.08 A 0.97 0.97 0 0 1 307.521 3.399 A 1.184 1.184 0 0 1 307.48 3.4 Z" id="15" vector-effect="non-scaling-stroke"/><path d="M 332.24 12.36 L 331.68 12.96 Q 330.48 11.32 328.68 10.54 A 9.612 9.612 0 0 0 324.962 9.761 A 11.009 11.009 0 0 0 324.8 9.76 A 10.076 10.076 0 0 0 321.824 10.187 A 8.872 8.872 0 0 0 320 10.98 Q 317.88 12.2 316.66 14.38 Q 315.44 16.56 315.44 19.44 Q 315.44 22.32 316.66 24.5 Q 317.88 26.68 320 27.92 A 9.129 9.129 0 0 0 324.057 29.135 A 11.102 11.102 0 0 0 324.8 29.16 A 9.506 9.506 0 0 0 328.34 28.503 A 9.147 9.147 0 0 0 328.68 28.36 Q 330.48 27.56 331.68 25.96 L 332.24 26.56 Q 330.92 28.24 328.98 29.08 Q 327.04 29.92 324.8 29.92 A 10.876 10.876 0 0 1 321.591 29.46 A 9.551 9.551 0 0 1 319.58 28.58 Q 317.28 27.24 315.96 24.88 A 10.344 10.344 0 0 1 314.744 21.116 A 13.088 13.088 0 0 1 314.64 19.44 A 12.215 12.215 0 0 1 314.991 16.455 A 9.993 9.993 0 0 1 315.96 14 Q 317.28 11.64 319.58 10.32 A 10.01 10.01 0 0 1 323.815 9.039 A 12.257 12.257 0 0 1 324.8 9 A 10.521 10.521 0 0 1 328.428 9.62 A 10 10 0 0 1 328.98 9.84 Q 330.92 10.68 332.24 12.36 Z" id="16" vector-effect="non-scaling-stroke"/><path d="M 335.56 27.08 L 336.04 26.44 A 7.377 7.377 0 0 0 337.142 27.305 Q 338.004 27.866 339.16 28.34 A 10.936 10.936 0 0 0 342.064 29.072 A 13.689 13.689 0 0 0 343.64 29.16 A 16.793 16.793 0 0 0 345.448 29.07 Q 347.296 28.869 348.418 28.221 A 4.019 4.019 0 0 0 348.92 27.88 Q 350.52 26.6 350.52 24.56 A 4.676 4.676 0 0 0 350.43 23.616 Q 350.259 22.784 349.76 22.22 Q 349 21.36 347.74 20.9 Q 346.48 20.44 344.96 20.16 Q 343.44 19.88 341.92 19.56 A 13.865 13.865 0 0 1 340.037 19.028 A 11.729 11.729 0 0 1 339.14 18.66 A 5.437 5.437 0 0 1 337.768 17.77 A 4.841 4.841 0 0 1 337.12 17.06 Q 336.36 16.04 336.36 14.32 Q 336.36 12.92 337.12 11.72 Q 337.854 10.561 339.39 9.813 A 8.245 8.245 0 0 1 339.5 9.76 Q 341.12 9 343.68 9 Q 345.6 9 347.48 9.58 A 11.264 11.264 0 0 1 348.889 10.114 Q 349.596 10.441 350.16 10.843 A 6.329 6.329 0 0 1 350.52 11.12 L 350.04 11.76 A 8.163 8.163 0 0 0 347.784 10.484 A 9.697 9.697 0 0 0 347.12 10.26 Q 345.44 9.76 343.68 9.76 A 13.863 13.863 0 0 0 341.926 9.863 Q 339.85 10.129 338.74 11.08 Q 337.2 12.4 337.2 14.32 A 4.925 4.925 0 0 0 337.296 15.322 Q 337.426 15.947 337.732 16.429 A 2.843 2.843 0 0 0 337.96 16.74 A 4.549 4.549 0 0 0 339.302 17.812 A 5.791 5.791 0 0 0 339.98 18.12 Q 341.24 18.6 342.76 18.88 Q 344.28 19.16 345.78 19.48 A 14.671 14.671 0 0 1 347.719 20.03 A 12.541 12.541 0 0 1 348.54 20.36 Q 349.8 20.92 350.56 21.9 Q 351.213 22.742 351.305 24.101 A 6.805 6.805 0 0 1 351.32 24.56 A 4.927 4.927 0 0 1 350.941 26.503 A 4.725 4.725 0 0 1 350.48 27.34 A 4.752 4.752 0 0 1 349.179 28.598 A 6.756 6.756 0 0 1 347.94 29.24 A 8.516 8.516 0 0 1 346.41 29.68 Q 345.644 29.83 344.753 29.886 A 17.693 17.693 0 0 1 343.64 29.92 A 14.065 14.065 0 0 1 339.969 29.451 A 12.82 12.82 0 0 1 338.92 29.12 Q 337.22 28.502 336.141 27.621 A 5.924 5.924 0 0 1 335.56 27.08 Z" id="17" vector-effect="non-scaling-stroke"/></g></svg>